<?xml version="1.0" encoding="utf-8"?>
<!-- Generator: Adobe Illustrator 24.1.2, SVG Export Plug-In . SVG Version: 6.00 Build 0)  -->
<svg version="1.1" id="Layer_1" xmlns="http://www.w3.org/2000/svg" xmlns:xlink="http://www.w3.org/1999/xlink" x="0px" y="0px"
	 viewBox="0 0 64 64" style="enable-background:new 0 0 64 64;" xml:space="preserve">
<style type="text/css">
	.st0{fill:#FF0000;}
</style>
<g id="L">
	<g>
		<g>
			<path class="st0" d="M43,47.1c-1.2,0-2.4-0.4-3.4-1.2c-2.3-1.9-2.7-5.3-0.9-7.6c1-1.3,2.6-2.1,4.3-2.1c1.2,0,2.4,0.4,3.4,1.2
				c1.1,0.9,1.9,2.2,2,3.6c0.2,1.4-0.2,2.9-1.1,4C46.2,46.4,44.7,47.1,43,47.1z"/>
			<path class="st0" d="M43,36.9L43,36.9c1.1,0,2.1,0.4,3,1c1,0.8,1.7,2,1.8,3.2c0.1,1.3-0.2,2.5-1,3.6c-0.9,1.2-2.3,1.8-3.8,1.8
				c-1.1,0-2.1-0.4-3-1c-1-0.8-1.7-2-1.8-3.2c-0.1-1.3,0.2-2.5,1-3.6C40.1,37.5,41.5,36.9,43,36.9 M43,35.7c-1.8,0-3.5,0.8-4.7,2.3
				c-2.1,2.6-1.6,6.4,1,8.4c1.1,0.9,2.4,1.3,3.7,1.3c1.8,0,3.5-0.8,4.7-2.3c2.1-2.6,1.6-6.4-1-8.4C45.6,36.1,44.3,35.7,43,35.7
				L43,35.7z"/>
		</g>
		<g>
			<circle class="st0" cx="21" cy="41.7" r="5.4"/>
			<path class="st0" d="M21,36.9c2.7,0,4.8,2.2,4.8,4.8s-2.2,4.8-4.8,4.8s-4.8-2.2-4.8-4.8S18.3,36.9,21,36.9 M21,35.7
				c-3.3,0-6,2.7-6,6s2.7,6,6,6s6-2.7,6-6S24.3,35.7,21,35.7L21,35.7z"/>
		</g>
		<g>
			<circle class="st0" cx="32" cy="22.3" r="5.4"/>
			<path class="st0" d="M32,17.5c2.7,0,4.8,2.2,4.8,4.8s-2.2,4.8-4.8,4.8s-4.8-2.2-4.8-4.8S29.3,17.5,32,17.5 M32,16.3
				c-3.3,0-6,2.7-6,6s2.7,6,6,6s6-2.7,6-6S35.3,16.3,32,16.3L32,16.3z"/>
		</g>
	</g>
</g>
</svg>
