<?xml version="1.0" encoding="utf-8"?>
<!-- Generator: Adobe Illustrator 24.1.2, SVG Export Plug-In . SVG Version: 6.00 Build 0)  -->
<svg version="1.1" id="Layer_2" xmlns="http://www.w3.org/2000/svg" xmlns:xlink="http://www.w3.org/1999/xlink" x="0px" y="0px"
	 viewBox="0 0 64 64" style="enable-background:new 0 0 64 64;" xml:space="preserve">
<style type="text/css">
	.st0{fill:#FF0000;}
</style>
<g>
	<path class="st0" d="M21,35.7c-3.3,0-6,2.7-6,6s2.7,6,6,6s6-2.7,6-6S24.3,35.7,21,35.7z"/>
	<path class="st0" d="M32,16.3c-3.3,0-6,2.7-6,6s2.7,6,6,6s6-2.7,6-6S35.3,16.3,32,16.3z"/>
	<path d="M43,36.9L43,36.9c2.7,0,4.8,2.2,4.8,4.8c0,2.7-2.2,4.8-4.8,4.8s-4.8-2.2-4.8-4.8c0-1.1,0.4-2.2,1-3
		C40.1,37.5,41.5,36.9,43,36.9 M43,35.7c-3.3,0-6,2.7-6,6c0,3.3,2.7,6,6,6s6-2.7,6-6c0-1.8-0.8-3.6-2.3-4.7
		C45.7,36.2,44.3,35.7,43,35.7z"/>
</g>
</svg>
