<?xml version="1.0" encoding="utf-8"?>
<!-- Generator: Adobe Illustrator 24.1.0, SVG Export Plug-In . SVG Version: 6.00 Build 0)  -->
<svg version="1.1" xmlns="http://www.w3.org/2000/svg" xmlns:xlink="http://www.w3.org/1999/xlink" x="0px" y="0px"
	 viewBox="0 0 64 64" style="enable-background:new 0 0 64 64;" xml:space="preserve">
<style type="text/css">
	.st0{display:none;}
	.st1{display:inline;}
</style>
<g id="difficulty_Heavy" class="st0">
	<path class="st1" d="M18.3,23.9l0.7,14.7l-6.5,14.1 M30.2,15.1C30.1,15,30.1,15,30.2,15.1c-0.4-0.5-1-0.7-1.5-0.6
		c-0.5,0.1-1,0.4-1.3,0.9L22.5,25l0.8,1.5L28.7,16c0.1-0.1,0.1-0.1,0.2-0.1c0,0,0.1,0,0.2,0l2.6,4.2l0.7-1.5L30.2,15.1z M61.4,52.3
		L41.2,10.1c-0.3-0.6-0.8-0.9-1.5-0.9c0,0,0,0,0,0c-0.6,0-1.2,0.4-1.5,0.9L27.1,33.3l0.8,1.5l11.5-24.1c0.1-0.1,0.2-0.1,0.2-0.1
		c0.1,0,0.2,0,0.2,0.2l19.7,41.2l-23-0.2c0.2,0.4,0.3,0.8,0.3,1.2c0,0.1,0,0.1,0,0.2l23.9,0.2c0,0,0,0,0,0c0.2,0,0.5-0.1,0.6-0.3
		C61.5,52.8,61.5,52.5,61.4,52.3z M35.5,53c0.1-0.2,0.1-0.5,0-0.7l-15.8-29c-0.3-0.6-0.9-0.9-1.5-0.9c-0.6,0-1.2,0.4-1.4,0.9
		l-14.2,29c-0.1,0.2-0.1,0.5,0,0.7c0.1,0.2,0.4,0.3,0.6,0.3h31.7C35.1,53.3,35.4,53.2,35.5,53z M18.1,23.9c0.1-0.1,0.2-0.2,0.2-0.2
		c0.1,0,0.2,0,0.2,0.1l15.2,28H4.4L18.1,23.9z"/>
</g>
<g id="difficulty_Medium_1_" class="st0">
	<path class="st1" d="M61.3,53c-0.1,0.2-0.4,0.3-0.6,0.3l-22.7,0c0-0.1,0-0.2,0-0.4c-0.1-0.3-0.2-0.7-0.3-1l21.8,0
		c-1-1.9-3.6-6.6-7.8-12.5c-2.6-3.6-6.7-5.9-11.4-6.3c-3.5-0.3-6.7,0.6-9.4,2.3l-0.6-1.3c2.8-1.8,6.4-2.7,10-2.4
		c5.1,0.4,9.7,2.9,12.5,6.9c5.6,8,8.4,13.6,8.4,13.7C61.5,52.5,61.5,52.8,61.3,53z M3.3,53.4l32.7-0.1c0.2,0,0.5-0.1,0.6-0.3
		c0.1-0.2,0.2-0.4,0.1-0.7c0-0.1-5-12-7.9-18.3c-2.1-4.7-5.9-7.6-9.8-7.6c0,0-0.1,0-0.1,0c-3.9,0-7.3,2.9-9.4,8
		c-2.3,5.4-6.7,17.9-6.8,18c-0.1,0.2,0,0.5,0.1,0.6S3,53.4,3.3,53.4C3.3,53.4,3.3,53.4,3.3,53.4z M27.4,34.6
		c2.4,5.2,6.2,14.3,7.5,17.3L4.3,52c1.1-3,4.5-12.6,6.4-17c1.9-4.6,4.8-7.1,8.2-7.1c0,0,0,0,0.1,0C22.3,27.8,25.5,30.4,27.4,34.6z"
		/>
</g>
<g id="difficulty_Light">
	<path d="M59.5,52.5v0.1c0,0.4-0.3,0.7-0.7,0.7H39.4c0.1-0.1,0.1-0.3,0.1-0.5c0-0.3,0-0.6-0.1-0.9h15.7c-2.3-0.9-3.9-1.8-5.2-2.5
		c-2.9-1.5-4.8-2.6-10.5-2.6c-2.6,0-5.4,0.5-7.8,1.4l-1.7-0.8c2.9-1.3,6.4-2,9.6-2c6.1,0,8.3,1.1,11.2,2.7c1.9,1,4.3,2.3,8.4,3.6
		C59.3,51.9,59.5,52.2,59.5,52.5z M38.2,52.6v-0.2c0-0.3-0.2-0.6-0.5-0.7c-3.9-1-6.6-2.4-9-3.5c-3-1.5-5.5-2.7-9.3-2.7
		c-5.9,0-9.4,2.5-14,6.4c-0.2,0.1-0.3,0.3-0.3,0.5v0.2c0,0.4,0.3,0.7,0.7,0.7h31.6C37.9,53.3,38.2,53,38.2,52.6z M19.4,46.8
		c3.4,0,5.7,1.1,8.6,2.6c1.6,0.8,3.4,1.7,5.5,2.5h-26C11.5,48.7,14.5,46.8,19.4,46.8z"/>
</g>
<g id="Layer_4">
</g>
</svg>
