<?xml version="1.0" standalone="no"?>
<!DOCTYPE svg PUBLIC "-//W3C//DTD SVG 20010904//EN"
 "http://www.w3.org/TR/2001/REC-SVG-20010904/DTD/svg10.dtd">
<svg version="1.0" xmlns="http://www.w3.org/2000/svg"
 width="1280.000000pt" height="1144.000000pt" viewBox="0 0 1280.000000 1144.000000"
 preserveAspectRatio="xMidYMid meet">
<metadata>
Created by potrace 1.15, written by Peter Selinger 2001-2017
</metadata>
<g transform="translate(0.000000,1144.000000) scale(0.100000,-0.100000)"
fill="#000000" stroke="none">
<path d="M5910 11417 c-146 -53 -266 -135 -323 -219 -19 -29 -932 -1612 -2028
-3518 -1095 -1906 -2326 -4046 -2734 -4755 -409 -710 -754 -1314 -769 -1343
-143 -283 6 -632 313 -734 l66 -22 5550 -9 c4263 -7 5565 -6 5617 3 183 32
314 142 363 303 49 163 51 315 7 418 -23 52 -5482 9616 -5522 9674 -91 131
-235 212 -395 221 -67 4 -90 1 -145 -19z"/>
</g>
</svg>
